%TF.GenerationSoftware,KiCad,Pcbnew,8.0.9-8.0.9-0~ubuntu22.04.1*%
%TF.CreationDate,2025-12-16T17:58:39+09:00*%
%TF.ProjectId,Jetson_Side_Expand_Board,4a657473-6f6e-45f5-9369-64655f457870,rev?*%
%TF.SameCoordinates,Original*%
%TF.FileFunction,Copper,L1,Top*%
%TF.FilePolarity,Positive*%
%FSLAX46Y46*%
G04 Gerber Fmt 4.6, Leading zero omitted, Abs format (unit mm)*
G04 Created by KiCad (PCBNEW 8.0.9-8.0.9-0~ubuntu22.04.1) date 2025-12-16 17:58:39*
%MOMM*%
%LPD*%
G01*
G04 APERTURE LIST*
G04 Aperture macros list*
%AMRoundRect*
0 Rectangle with rounded corners*
0 $1 Rounding radius*
0 $2 $3 $4 $5 $6 $7 $8 $9 X,Y pos of 4 corners*
0 Add a 4 corners polygon primitive as box body*
4,1,4,$2,$3,$4,$5,$6,$7,$8,$9,$2,$3,0*
0 Add four circle primitives for the rounded corners*
1,1,$1+$1,$2,$3*
1,1,$1+$1,$4,$5*
1,1,$1+$1,$6,$7*
1,1,$1+$1,$8,$9*
0 Add four rect primitives between the rounded corners*
20,1,$1+$1,$2,$3,$4,$5,0*
20,1,$1+$1,$4,$5,$6,$7,0*
20,1,$1+$1,$6,$7,$8,$9,0*
20,1,$1+$1,$8,$9,$2,$3,0*%
G04 Aperture macros list end*
%TA.AperFunction,ComponentPad*%
%ADD10R,1.700000X1.700000*%
%TD*%
%TA.AperFunction,ComponentPad*%
%ADD11O,1.700000X1.700000*%
%TD*%
%TA.AperFunction,ComponentPad*%
%ADD12C,1.700000*%
%TD*%
%TA.AperFunction,SMDPad,CuDef*%
%ADD13RoundRect,0.237500X0.237500X-0.287500X0.237500X0.287500X-0.237500X0.287500X-0.237500X-0.287500X0*%
%TD*%
%TA.AperFunction,SMDPad,CuDef*%
%ADD14RoundRect,0.237500X-0.300000X-0.237500X0.300000X-0.237500X0.300000X0.237500X-0.300000X0.237500X0*%
%TD*%
%TA.AperFunction,ComponentPad*%
%ADD15RoundRect,0.250000X-0.725000X0.600000X-0.725000X-0.600000X0.725000X-0.600000X0.725000X0.600000X0*%
%TD*%
%TA.AperFunction,ComponentPad*%
%ADD16O,1.950000X1.700000*%
%TD*%
%TA.AperFunction,SMDPad,CuDef*%
%ADD17RoundRect,0.150000X-0.150000X0.825000X-0.150000X-0.825000X0.150000X-0.825000X0.150000X0.825000X0*%
%TD*%
%TA.AperFunction,ViaPad*%
%ADD18C,0.600000*%
%TD*%
%TA.AperFunction,Conductor*%
%ADD19C,0.200000*%
%TD*%
G04 APERTURE END LIST*
D10*
%TO.P,J8,1,Pin_1*%
%TO.N,GND*%
X125222000Y-89677000D03*
D11*
%TO.P,J8,2,Pin_2*%
%TO.N,/UART2_TXD (DEBUG)*%
X125222000Y-92217000D03*
%TO.P,J8,3,Pin_3*%
%TO.N,/UART2_RXD (DEBUG)*%
X125222000Y-94757000D03*
%TD*%
D12*
%TO.P,J3,0*%
%TO.N,N/C*%
X126238000Y-115284000D03*
X126238000Y-103284000D03*
%TO.P,J3,1,Pin_1*%
%TO.N,unconnected-(J3-Pin_1-Pad1)*%
X126238000Y-107284000D03*
%TO.P,J3,2,Pin_2*%
%TO.N,unconnected-(J3-Pin_2-Pad2)*%
X126238000Y-109284000D03*
%TO.P,J3,3,Pin_3*%
%TO.N,/CAN+*%
X126238000Y-111284000D03*
%TO.P,J3,4,Pin_4*%
%TO.N,/CAN-*%
X126238000Y-113284000D03*
%TD*%
D13*
%TO.P,D1,1,K*%
%TO.N,/PC_LED-*%
X128016000Y-99554000D03*
%TO.P,D1,2,A*%
%TO.N,Net-(D1-A)*%
X128016000Y-97804000D03*
%TD*%
D14*
%TO.P,R1,1*%
%TO.N,/PC_LED+*%
X121211000Y-97790000D03*
%TO.P,R1,2*%
%TO.N,Net-(D1-A)*%
X122936000Y-97790000D03*
%TD*%
%TO.P,C1,1*%
%TO.N,+3.3V*%
X119179000Y-107188000D03*
%TO.P,C1,2*%
%TO.N,GND*%
X120904000Y-107188000D03*
%TD*%
D15*
%TO.P,J7,1,Pin_1*%
%TO.N,/SYS_RESET*%
X125730000Y-82296000D03*
D16*
%TO.P,J7,2,Pin_2*%
%TO.N,GND*%
X125730000Y-84796000D03*
%TD*%
D10*
%TO.P,J4,1,Pin_1*%
%TO.N,/Auto_Start2*%
X119634000Y-87625000D03*
D11*
%TO.P,J4,2,Pin_2*%
%TO.N,/Auto_Start1*%
X119634000Y-90165000D03*
%TD*%
D17*
%TO.P,U1,1,TXD*%
%TO.N,/CAN_TX*%
X121793000Y-109285000D03*
%TO.P,U1,2,GND*%
%TO.N,GND*%
X120523000Y-109285000D03*
%TO.P,U1,3,VCC*%
%TO.N,+3.3V*%
X119253000Y-109285000D03*
%TO.P,U1,4,RXD*%
%TO.N,/CAN_RX*%
X117983000Y-109285000D03*
%TO.P,U1,5,NC*%
%TO.N,unconnected-(U1-NC-Pad5)*%
X117983000Y-114235000D03*
%TO.P,U1,6,CANL*%
%TO.N,/CAN-*%
X119253000Y-114235000D03*
%TO.P,U1,7,CANH*%
%TO.N,/CAN+*%
X120523000Y-114235000D03*
%TO.P,U1,8,NC*%
%TO.N,unconnected-(U1-NC-Pad8)*%
X121793000Y-114235000D03*
%TD*%
D15*
%TO.P,J5,1,Pin_1*%
%TO.N,/SLEEP{slash}WAKE*%
X125730000Y-73700000D03*
D16*
%TO.P,J5,2,Pin_2*%
%TO.N,GND*%
X125730000Y-76200000D03*
%TD*%
D10*
%TO.P,J6,1,Pin_1*%
%TO.N,/FORCE_RECOVERY*%
X119634000Y-77465000D03*
D11*
%TO.P,J6,2,Pin_2*%
%TO.N,GND*%
X119634000Y-80005000D03*
%TD*%
D10*
%TO.P,J2,1,Pin_1*%
%TO.N,/CAN_TX*%
X116160000Y-115610000D03*
D11*
%TO.P,J2,2,Pin_2*%
%TO.N,/CAN_RX*%
X116160000Y-113070000D03*
%TO.P,J2,3,Pin_3*%
%TO.N,GND*%
X116160000Y-110530000D03*
%TO.P,J2,4,Pin_4*%
%TO.N,+3.3V*%
X116160000Y-107990000D03*
%TD*%
D10*
%TO.P,J1,1,Pin_1*%
%TO.N,/PC_LED-*%
X116160000Y-100330000D03*
D11*
%TO.P,J1,2,Pin_2*%
%TO.N,/PC_LED+*%
X116160000Y-97790000D03*
%TO.P,J1,3,Pin_3*%
%TO.N,/UART2_RXD (DEBUG)*%
X116160000Y-95250000D03*
%TO.P,J1,4,Pin_4*%
%TO.N,/UART2_TXD (DEBUG)*%
X116160000Y-92710000D03*
%TO.P,J1,5,Pin_5*%
%TO.N,/Auto_Start1*%
X116160000Y-90170000D03*
%TO.P,J1,6,Pin_6*%
%TO.N,/Auto_Start2*%
X116160000Y-87630000D03*
%TO.P,J1,7,Pin_7*%
%TO.N,GND*%
X116160000Y-85090000D03*
%TO.P,J1,8,Pin_8*%
%TO.N,/SYS_RESET*%
X116160000Y-82550000D03*
%TO.P,J1,9,Pin_9*%
%TO.N,GND*%
X116160000Y-80010000D03*
%TO.P,J1,10,Pin_10*%
%TO.N,/FORCE_RECOVERY*%
X116160000Y-77470000D03*
%TO.P,J1,11,Pin_11*%
%TO.N,GND*%
X116160000Y-74930000D03*
%TO.P,J1,12,Pin_12*%
%TO.N,/SLEEP{slash}WAKE*%
X116160000Y-72390000D03*
%TD*%
D18*
%TO.N,GND*%
X119974721Y-110422960D03*
%TO.N,/CAN-*%
X124714000Y-114808000D03*
%TO.N,/CAN+*%
X124460000Y-112675500D03*
%TD*%
D19*
%TO.N,+3.3V*%
X119253000Y-107262000D02*
X119179000Y-107188000D01*
X116962000Y-107188000D02*
X116160000Y-107990000D01*
X119179000Y-107188000D02*
X116962000Y-107188000D01*
X119253000Y-109285000D02*
X119253000Y-107262000D01*
%TO.N,GND*%
X116160000Y-74930000D02*
X124460000Y-74930000D01*
X120523000Y-109285000D02*
X120523000Y-109874681D01*
X125730000Y-84796000D02*
X116454000Y-84796000D01*
X120523000Y-109874681D02*
X119974721Y-110422960D01*
X125222000Y-85304000D02*
X125730000Y-84796000D01*
X125222000Y-89677000D02*
X125222000Y-85304000D01*
X116165000Y-80005000D02*
X116160000Y-80010000D01*
X116454000Y-84796000D02*
X116160000Y-85090000D01*
X119634000Y-80005000D02*
X116165000Y-80005000D01*
X124460000Y-74930000D02*
X125730000Y-76200000D01*
%TO.N,Net-(D1-A)*%
X122936000Y-97790000D02*
X128002000Y-97790000D01*
X128002000Y-97790000D02*
X128016000Y-97804000D01*
%TO.N,/PC_LED-*%
X128016000Y-99554000D02*
X116936000Y-99554000D01*
X116936000Y-99554000D02*
X116160000Y-100330000D01*
%TO.N,/UART2_TXD (DEBUG)*%
X124729000Y-92710000D02*
X125222000Y-92217000D01*
X116160000Y-92710000D02*
X124729000Y-92710000D01*
%TO.N,/PC_LED+*%
X116160000Y-97790000D02*
X121211000Y-97790000D01*
%TO.N,/Auto_Start2*%
X119629000Y-87630000D02*
X119634000Y-87625000D01*
X116160000Y-87630000D02*
X119629000Y-87630000D01*
%TO.N,/SYS_RESET*%
X116160000Y-82550000D02*
X125476000Y-82550000D01*
X125476000Y-82550000D02*
X125730000Y-82296000D01*
%TO.N,/UART2_RXD (DEBUG)*%
X124729000Y-95250000D02*
X125222000Y-94757000D01*
X116160000Y-95250000D02*
X124729000Y-95250000D01*
%TO.N,/FORCE_RECOVERY*%
X116165000Y-77465000D02*
X116160000Y-77470000D01*
X119634000Y-77465000D02*
X116165000Y-77465000D01*
%TO.N,/SLEEP{slash}WAKE*%
X116160000Y-72390000D02*
X124420000Y-72390000D01*
X124420000Y-72390000D02*
X125730000Y-73700000D01*
%TO.N,/Auto_Start1*%
X116160000Y-90170000D02*
X119629000Y-90170000D01*
X119629000Y-90170000D02*
X119634000Y-90165000D01*
%TO.N,/CAN_RX*%
X117983000Y-111247000D02*
X117983000Y-109285000D01*
X116160000Y-113070000D02*
X117983000Y-111247000D01*
%TO.N,/CAN_TX*%
X116160000Y-115610000D02*
X117383000Y-114387000D01*
X118588448Y-112014000D02*
X120038999Y-112014000D01*
X117383000Y-114387000D02*
X117383000Y-113219448D01*
X120038999Y-112014000D02*
X121793000Y-110259999D01*
X117383000Y-113219448D02*
X118588448Y-112014000D01*
X121793000Y-110259999D02*
X121793000Y-109285000D01*
%TO.N,/CAN-*%
X120182448Y-115510000D02*
X124012000Y-115510000D01*
X119253000Y-114235000D02*
X119703000Y-114685000D01*
X119703000Y-114685000D02*
X119703000Y-115030552D01*
X119703000Y-115030552D02*
X120182448Y-115510000D01*
X124012000Y-115510000D02*
X126238000Y-113284000D01*
%TO.N,/CAN+*%
X124460000Y-112675500D02*
X124846500Y-112675500D01*
X124460000Y-112675500D02*
X124433500Y-112649000D01*
X124433500Y-112649000D02*
X121763448Y-112649000D01*
X121763448Y-112649000D02*
X120523000Y-113889448D01*
X124846500Y-112675500D02*
X126238000Y-111284000D01*
X120523000Y-113889448D02*
X120523000Y-114235000D01*
%TD*%
M02*
