%TF.GenerationSoftware,KiCad,Pcbnew,8.0.9-8.0.9-0~ubuntu22.04.1*%
%TF.CreationDate,2025-12-16T17:58:39+09:00*%
%TF.ProjectId,Jetson_Side_Expand_Board,4a657473-6f6e-45f5-9369-64655f457870,rev?*%
%TF.SameCoordinates,Original*%
%TF.FileFunction,Legend,Bot*%
%TF.FilePolarity,Positive*%
%FSLAX46Y46*%
G04 Gerber Fmt 4.6, Leading zero omitted, Abs format (unit mm)*
G04 Created by KiCad (PCBNEW 8.0.9-8.0.9-0~ubuntu22.04.1) date 2025-12-16 17:58:39*
%MOMM*%
%LPD*%
G01*
G04 APERTURE LIST*
G04 Aperture macros list*
%AMRoundRect*
0 Rectangle with rounded corners*
0 $1 Rounding radius*
0 $2 $3 $4 $5 $6 $7 $8 $9 X,Y pos of 4 corners*
0 Add a 4 corners polygon primitive as box body*
4,1,4,$2,$3,$4,$5,$6,$7,$8,$9,$2,$3,0*
0 Add four circle primitives for the rounded corners*
1,1,$1+$1,$2,$3*
1,1,$1+$1,$4,$5*
1,1,$1+$1,$6,$7*
1,1,$1+$1,$8,$9*
0 Add four rect primitives between the rounded corners*
20,1,$1+$1,$2,$3,$4,$5,0*
20,1,$1+$1,$4,$5,$6,$7,0*
20,1,$1+$1,$6,$7,$8,$9,0*
20,1,$1+$1,$8,$9,$2,$3,0*%
G04 Aperture macros list end*
%ADD10C,0.150000*%
%ADD11C,0.120000*%
%ADD12R,1.700000X1.700000*%
%ADD13O,1.700000X1.700000*%
%ADD14C,1.700000*%
%ADD15RoundRect,0.250000X-0.725000X0.600000X-0.725000X-0.600000X0.725000X-0.600000X0.725000X0.600000X0*%
%ADD16O,1.950000X1.700000*%
%ADD17RoundRect,0.237500X-0.237500X0.300000X-0.237500X-0.300000X0.237500X-0.300000X0.237500X0.300000X0*%
G04 APERTURE END LIST*
D10*
X112113333Y-117834819D02*
X112113333Y-118549104D01*
X112113333Y-118549104D02*
X112160952Y-118691961D01*
X112160952Y-118691961D02*
X112256190Y-118787200D01*
X112256190Y-118787200D02*
X112399047Y-118834819D01*
X112399047Y-118834819D02*
X112494285Y-118834819D01*
X111684761Y-117930057D02*
X111637142Y-117882438D01*
X111637142Y-117882438D02*
X111541904Y-117834819D01*
X111541904Y-117834819D02*
X111303809Y-117834819D01*
X111303809Y-117834819D02*
X111208571Y-117882438D01*
X111208571Y-117882438D02*
X111160952Y-117930057D01*
X111160952Y-117930057D02*
X111113333Y-118025295D01*
X111113333Y-118025295D02*
X111113333Y-118120533D01*
X111113333Y-118120533D02*
X111160952Y-118263390D01*
X111160952Y-118263390D02*
X111732380Y-118834819D01*
X111732380Y-118834819D02*
X111113333Y-118834819D01*
X123484819Y-113498333D02*
X123008628Y-113165000D01*
X123484819Y-112926905D02*
X122484819Y-112926905D01*
X122484819Y-112926905D02*
X122484819Y-113307857D01*
X122484819Y-113307857D02*
X122532438Y-113403095D01*
X122532438Y-113403095D02*
X122580057Y-113450714D01*
X122580057Y-113450714D02*
X122675295Y-113498333D01*
X122675295Y-113498333D02*
X122818152Y-113498333D01*
X122818152Y-113498333D02*
X122913390Y-113450714D01*
X122913390Y-113450714D02*
X122961009Y-113403095D01*
X122961009Y-113403095D02*
X123008628Y-113307857D01*
X123008628Y-113307857D02*
X123008628Y-112926905D01*
X122580057Y-113879286D02*
X122532438Y-113926905D01*
X122532438Y-113926905D02*
X122484819Y-114022143D01*
X122484819Y-114022143D02*
X122484819Y-114260238D01*
X122484819Y-114260238D02*
X122532438Y-114355476D01*
X122532438Y-114355476D02*
X122580057Y-114403095D01*
X122580057Y-114403095D02*
X122675295Y-114450714D01*
X122675295Y-114450714D02*
X122770533Y-114450714D01*
X122770533Y-114450714D02*
X122913390Y-114403095D01*
X122913390Y-114403095D02*
X123484819Y-113831667D01*
X123484819Y-113831667D02*
X123484819Y-114450714D01*
X112113333Y-102554819D02*
X112113333Y-103269104D01*
X112113333Y-103269104D02*
X112160952Y-103411961D01*
X112160952Y-103411961D02*
X112256190Y-103507200D01*
X112256190Y-103507200D02*
X112399047Y-103554819D01*
X112399047Y-103554819D02*
X112494285Y-103554819D01*
X111113333Y-103554819D02*
X111684761Y-103554819D01*
X111399047Y-103554819D02*
X111399047Y-102554819D01*
X111399047Y-102554819D02*
X111494285Y-102697676D01*
X111494285Y-102697676D02*
X111589523Y-102792914D01*
X111589523Y-102792914D02*
X111684761Y-102840533D01*
D11*
%TO.C,J2*%
X106070000Y-106660000D02*
X106070000Y-116940000D01*
X114700000Y-106660000D02*
X106070000Y-106660000D01*
X114700000Y-106660000D02*
X114700000Y-116940000D01*
X114700000Y-109260000D02*
X106070000Y-109260000D01*
X114700000Y-111800000D02*
X106070000Y-111800000D01*
X114700000Y-114340000D02*
X106070000Y-114340000D01*
X114700000Y-114458100D02*
X106070000Y-114458100D01*
X114700000Y-114576195D02*
X106070000Y-114576195D01*
X114700000Y-114694290D02*
X106070000Y-114694290D01*
X114700000Y-114812385D02*
X106070000Y-114812385D01*
X114700000Y-114930480D02*
X106070000Y-114930480D01*
X114700000Y-115048575D02*
X106070000Y-115048575D01*
X114700000Y-115166670D02*
X106070000Y-115166670D01*
X114700000Y-115284765D02*
X106070000Y-115284765D01*
X114700000Y-115402860D02*
X106070000Y-115402860D01*
X114700000Y-115520955D02*
X106070000Y-115520955D01*
X114700000Y-115639050D02*
X106070000Y-115639050D01*
X114700000Y-115757145D02*
X106070000Y-115757145D01*
X114700000Y-115875240D02*
X106070000Y-115875240D01*
X114700000Y-115993335D02*
X106070000Y-115993335D01*
X114700000Y-116111430D02*
X106070000Y-116111430D01*
X114700000Y-116229525D02*
X106070000Y-116229525D01*
X114700000Y-116347620D02*
X106070000Y-116347620D01*
X114700000Y-116465715D02*
X106070000Y-116465715D01*
X114700000Y-116583810D02*
X106070000Y-116583810D01*
X114700000Y-116701905D02*
X106070000Y-116701905D01*
X114700000Y-116820000D02*
X106070000Y-116820000D01*
X114700000Y-116940000D02*
X106070000Y-116940000D01*
X115050000Y-115250000D02*
X114700000Y-115250000D01*
X115050000Y-115970000D02*
X114700000Y-115970000D01*
X115110000Y-107630000D02*
X114700000Y-107630000D01*
X115110000Y-108350000D02*
X114700000Y-108350000D01*
X115110000Y-110170000D02*
X114700000Y-110170000D01*
X115110000Y-110890000D02*
X114700000Y-110890000D01*
X115110000Y-112710000D02*
X114700000Y-112710000D01*
X115110000Y-113430000D02*
X114700000Y-113430000D01*
X117270000Y-115610000D02*
X117270000Y-116940000D01*
X117270000Y-116940000D02*
X116160000Y-116940000D01*
%TO.C,R2*%
X123950000Y-113811267D02*
X123950000Y-113518733D01*
X124970000Y-113811267D02*
X124970000Y-113518733D01*
%TO.C,J1*%
X106070000Y-71060000D02*
X106070000Y-101660000D01*
X114700000Y-71060000D02*
X106070000Y-71060000D01*
X114700000Y-71060000D02*
X114700000Y-101660000D01*
X114700000Y-73660000D02*
X106070000Y-73660000D01*
X114700000Y-76200000D02*
X106070000Y-76200000D01*
X114700000Y-78740000D02*
X106070000Y-78740000D01*
X114700000Y-81280000D02*
X106070000Y-81280000D01*
X114700000Y-83820000D02*
X106070000Y-83820000D01*
X114700000Y-86360000D02*
X106070000Y-86360000D01*
X114700000Y-88900000D02*
X106070000Y-88900000D01*
X114700000Y-91440000D02*
X106070000Y-91440000D01*
X114700000Y-93980000D02*
X106070000Y-93980000D01*
X114700000Y-96520000D02*
X106070000Y-96520000D01*
X114700000Y-99060000D02*
X106070000Y-99060000D01*
X114700000Y-99178100D02*
X106070000Y-99178100D01*
X114700000Y-99296195D02*
X106070000Y-99296195D01*
X114700000Y-99414290D02*
X106070000Y-99414290D01*
X114700000Y-99532385D02*
X106070000Y-99532385D01*
X114700000Y-99650480D02*
X106070000Y-99650480D01*
X114700000Y-99768575D02*
X106070000Y-99768575D01*
X114700000Y-99886670D02*
X106070000Y-99886670D01*
X114700000Y-100004765D02*
X106070000Y-100004765D01*
X114700000Y-100122860D02*
X106070000Y-100122860D01*
X114700000Y-100240955D02*
X106070000Y-100240955D01*
X114700000Y-100359050D02*
X106070000Y-100359050D01*
X114700000Y-100477145D02*
X106070000Y-100477145D01*
X114700000Y-100595240D02*
X106070000Y-100595240D01*
X114700000Y-100713335D02*
X106070000Y-100713335D01*
X114700000Y-100831430D02*
X106070000Y-100831430D01*
X114700000Y-100949525D02*
X106070000Y-100949525D01*
X114700000Y-101067620D02*
X106070000Y-101067620D01*
X114700000Y-101185715D02*
X106070000Y-101185715D01*
X114700000Y-101303810D02*
X106070000Y-101303810D01*
X114700000Y-101421905D02*
X106070000Y-101421905D01*
X114700000Y-101540000D02*
X106070000Y-101540000D01*
X114700000Y-101660000D02*
X106070000Y-101660000D01*
X115050000Y-99970000D02*
X114700000Y-99970000D01*
X115050000Y-100690000D02*
X114700000Y-100690000D01*
X115110000Y-72030000D02*
X114700000Y-72030000D01*
X115110000Y-72750000D02*
X114700000Y-72750000D01*
X115110000Y-74570000D02*
X114700000Y-74570000D01*
X115110000Y-75290000D02*
X114700000Y-75290000D01*
X115110000Y-77110000D02*
X114700000Y-77110000D01*
X115110000Y-77830000D02*
X114700000Y-77830000D01*
X115110000Y-79650000D02*
X114700000Y-79650000D01*
X115110000Y-80370000D02*
X114700000Y-80370000D01*
X115110000Y-82190000D02*
X114700000Y-82190000D01*
X115110000Y-82910000D02*
X114700000Y-82910000D01*
X115110000Y-84730000D02*
X114700000Y-84730000D01*
X115110000Y-85450000D02*
X114700000Y-85450000D01*
X115110000Y-87270000D02*
X114700000Y-87270000D01*
X115110000Y-87990000D02*
X114700000Y-87990000D01*
X115110000Y-89810000D02*
X114700000Y-89810000D01*
X115110000Y-90530000D02*
X114700000Y-90530000D01*
X115110000Y-92350000D02*
X114700000Y-92350000D01*
X115110000Y-93070000D02*
X114700000Y-93070000D01*
X115110000Y-94890000D02*
X114700000Y-94890000D01*
X115110000Y-95610000D02*
X114700000Y-95610000D01*
X115110000Y-97430000D02*
X114700000Y-97430000D01*
X115110000Y-98150000D02*
X114700000Y-98150000D01*
X117270000Y-100330000D02*
X117270000Y-101660000D01*
X117270000Y-101660000D02*
X116160000Y-101660000D01*
%TD*%
%LPC*%
D12*
%TO.C,J8*%
X125222000Y-89677000D03*
D13*
X125222000Y-92217000D03*
X125222000Y-94757000D03*
%TD*%
D14*
%TO.C,J3*%
X126238000Y-115284000D03*
X126238000Y-103284000D03*
X126238000Y-107284000D03*
X126238000Y-109284000D03*
X126238000Y-111284000D03*
X126238000Y-113284000D03*
%TD*%
D15*
%TO.C,J7*%
X125730000Y-82296000D03*
D16*
X125730000Y-84796000D03*
%TD*%
D12*
%TO.C,J4*%
X119634000Y-87625000D03*
D13*
X119634000Y-90165000D03*
%TD*%
D15*
%TO.C,J5*%
X125730000Y-73700000D03*
D16*
X125730000Y-76200000D03*
%TD*%
D12*
%TO.C,J6*%
X119634000Y-77465000D03*
D13*
X119634000Y-80005000D03*
%TD*%
D12*
%TO.C,J2*%
X116160000Y-115610000D03*
D13*
X116160000Y-113070000D03*
X116160000Y-110530000D03*
X116160000Y-107990000D03*
%TD*%
D17*
%TO.C,R2*%
X124460000Y-112802500D03*
X124460000Y-114527500D03*
%TD*%
D12*
%TO.C,J1*%
X116160000Y-100330000D03*
D13*
X116160000Y-97790000D03*
X116160000Y-95250000D03*
X116160000Y-92710000D03*
X116160000Y-90170000D03*
X116160000Y-87630000D03*
X116160000Y-85090000D03*
X116160000Y-82550000D03*
X116160000Y-80010000D03*
X116160000Y-77470000D03*
X116160000Y-74930000D03*
X116160000Y-72390000D03*
%TD*%
%LPD*%
M02*
