M48
; DRILL file {KiCad 8.0.9-8.0.9-0~ubuntu22.04.1} date 2025-12-16T17:58:39+0900
; FORMAT={-:-/ absolute / inch / decimal}
; #@! TF.CreationDate,2025-12-16T17:58:39+09:00
; #@! TF.GenerationSoftware,Kicad,Pcbnew,8.0.9-8.0.9-0~ubuntu22.04.1
; #@! TF.FileFunction,Plated,1,2,PTH
FMAT,2
INCH
; #@! TA.AperFunction,Plated,PTH,ViaDrill
T1C0.0118
; #@! TA.AperFunction,Plated,PTH,ComponentDrill
T2C0.0374
; #@! TA.AperFunction,Plated,PTH,ComponentDrill
T3C0.0394
%
G90
G05
T1
X4.7234Y-4.3474
X4.9Y-4.436
X4.91Y-4.52
T2
X4.95Y-2.9016
X4.95Y-3.0
X4.95Y-3.24
X4.95Y-3.3384
T3
X4.5732Y-2.85
X4.5732Y-2.95
X4.5732Y-3.05
X4.5732Y-3.15
X4.5732Y-3.25
X4.5732Y-3.35
X4.5732Y-3.45
X4.5732Y-3.55
X4.5732Y-3.65
X4.5732Y-3.75
X4.5732Y-3.85
X4.5732Y-3.95
X4.5732Y-4.2516
X4.5732Y-4.3516
X4.5732Y-4.4516
X4.5732Y-4.5516
X4.71Y-3.0498
X4.71Y-3.1498
X4.71Y-3.4498
X4.71Y-3.5498
X4.93Y-3.5306
X4.93Y-3.6306
X4.93Y-3.7306
X4.97Y-4.0663
X4.97Y-4.2238
X4.97Y-4.3025
X4.97Y-4.3813
X4.97Y-4.46
X4.97Y-4.5387
M30
